#!OML:ASF E:\motion texture\Top Level 1\Subject 1\Session 1\male.ASF
:FULLY-SPECIFIED
:DEGREES
316
root -11.4313 17.6495 4.57197 259.63 -88.5068 -251.175
lowerback -2.86373 0.886833 -0.931881
upperback 1.402 1.2356 -0.635902
thorax 3.04006 0.601709 -0.0638873
lowerneck -12.5718 2.49075 -3.70811
upperneck 30.7396 6.53202 -9.63595
head 12.5888 0.842966 -2.20077
rclavicle -5.32991e-015 3.97569e-015
rhumerus -12.4258 9.4978 -87.3406
rradius 84.4697
rwrist -26.7293
rhand -6.43818 -31.652
rfingers 7.12502
rthumb 19.4111 -60.7031
lclavicle -5.32991e-015 3.97569e-015
lhumerus -19.1947 19.1586 81.0761
lradius 75.5844
lwrist 37.0563
lhand -5.07161 29.5511
lfingers 7.12502
lthumb 20.7246 58.4645
rfemur -37.2102 -0.554097 15.2892
rtibia 10.8385
rfoot -8.29707 -19.4828
rtoes -4.69955
lfemur -0.592791 -5.47526 -24.8482
ltibia 14.338
lfoot -18.0324 1.2307
ltoes -0.338768
317
root -11.5744 17.6207 4.57614 259.729 -88.397 -251.213
lowerback -2.72073 0.854407 -0.905975
upperback 1.45516 1.18913 -0.626522
thorax 3.01479 0.57884 -0.0731557
lowerneck -12.5805 2.42774 -3.66742
upperneck 30.6599 6.43301 -9.66034
head 12.5551 0.807163 -2.22806
rclavicle -1.08959e-014 1.14301e-014
rhumerus -12.068 8.00868 -86.5111
rradius 84.8322
rwrist -26.8169
rhand -6.51301 -31.8438
rfingers 7.12502
rthumb 19.3391 -60.9022
lclavicle -1.08959e-014 1.14301e-014
lhumerus -19.9021 19.3211 81.03
lradius 76.754
lwrist 36.7795
lhand -4.7005 29.1529
lfingers 7.12502
lthumb 21.0812 58.0269
rfemur -37.8319 -1.43517 15.9006
rtibia 12.1434
rfoot -7.77858 -18.3128
rtoes -4.50799
lfemur -0.294401 -5.37019 -25.0328
ltibia 14.6832
lfoot -18.5273 1.16985
ltoes -0.690174
318
root -11.7187 17.5926 4.57985 259.746 -88.2991 -251.21
lowerback -2.52755 0.816621 -0.870524
upperback 1.50579 1.13418 -0.607266
thorax 2.95859 0.551936 -0.0787239
lowerneck -12.5744 2.36979 -3.621
upperneck 30.5722 6.34085 -9.69648
head 12.516 0.774105 -2.25972
rclavicle 4.84538e-015 7.15625e-015
rhumerus -11.6877 6.42455 -85.7044
rradius 85.0852
rwrist -26.9081
rhand -6.66111 -32.1158
rfingers 7.12502
rthumb 19.1967 -61.1884
lclavicle 4.84538e-015 7.15625e-015
lhumerus -20.6039 19.5524 80.9734
lradius 77.8095
lwrist 36.5846
lhand -4.36124 28.6981
lfingers 7.12502
lthumb 21.407 57.5354
rfemur -38.3808 -2.14009 16.4613
rtibia 13.5837
rfoot -7.16662 -17.1872
rtoes -4.08194
lfemur 0.0413038 -5.27788 -25.2113
ltibia 15.0554
lfoot -19.0061 1.12735
ltoes -1.08186
319
root -11.8652 17.5656 4.5825 261.03 -88.2255 -252.513
lowerback -2.30678 0.758903 -0.829066
upperback 1.56452 1.05183 -0.574616
thorax 2.89512 0.511317 -0.0753075
lowerneck -12.5696 2.31685 -3.57184
upperneck 30.477 6.25662 -9.73843
head 12.4747 0.744428 -2.29263
rclavicle 9.29318e-015 -8.44835e-015
rhumerus -11.268 4.75591 -84.9259
rradius 85.2201
rwrist -27.0102
rhand -6.91991 -32.4112
rfingers 7.12502
rthumb 18.9478 -61.5083
lclavicle 9.29318e-015 -8.44835e-015
lhumerus -21.2882 19.8572 80.9061
lradius 78.7403
lwrist 36.5118
lhand -3.96047 28.1663
lfingers 7.12502
lthumb 21.7919 56.9594
rfemur -38.7985 -2.62478 16.91
rtibia 15.0423
rfoot -6.59401 -16.1088
rtoes -3.63614
lfemur 0.412656 -5.20857 -25.3751
ltibia 15.4564
lfoot -19.4447 1.07312
ltoes -1.50238
320
root -12.0147 17.5398 4.5835 264.349 -88.1928 -255.882
lowerback -2.08216 0.669721 -0.77798
upperback 1.63174 0.926783 -0.518312
thorax 2.83812 0.449268 -0.0544851
lowerneck -12.5745 2.2706 -3.52309
upperneck 30.3775 6.18568 -9.78994
head 12.4349 0.719157 -2.32706
rclavicle -1.51573e-015 2.5345e-014
rhumerus -10.8078 3.02127 -84.1762
rradius 85.2284
rwrist -27.1283
rhand -7.32406 -32.6544
rfingers 7.12502
rthumb 18.5591 -61.789
lclavicle -1.51573e-015 2.5345e-014
lhumerus -21.9466 20.2507 80.8325
lradius 79.5323
lwrist 36.583
lhand -3.47637 27.5842
lfingers 7.12502
lthumb 22.2567 56.3226
rfemur -39.0599 -2.90317 17.2479
rtibia 16.4468
rfoot -6.16006 -15.0347
rtoes -3.35368
lfemur 0.801549 -5.15729 -25.4989
ltibia 15.9022
lfoot -19.8453 0.986323
ltoes -1.98071
321
root -12.1685 17.5153 4.58232 269.962 -88.1995 -261.559
lowerback -1.87632 0.547149 -0.713808
upperback 1.70529 0.756597 -0.433222
thorax 2.7982 0.364566 -0.0124844
lowerneck -12.5987 2.23274 -3.49033
upperneck 30.2807 6.12982 -9.8298
head 12.4002 0.699463 -2.35205
rclavicle 3.42904e-015 9.93923e-017
rhumerus -10.3074 1.23788 -83.4563
rradius 85.1016
rwrist -27.2646
rhand -7.85641 -32.7659
rfingers 7.12502
rthumb 18.047 -61.9486
lclavicle 3.42904e-015 9.93923e-017
lhumerus -22.576 20.7349 80.754
lradius 80.1763
lwrist 36.8067
lhand -2.28292 26.8626
lfingers 7.12502
lthumb 23.402 55.4597
rfemur -39.1644 -3.00252 17.4984
rtibia 17.7607
rfoot -5.90369 -13.9275
rtoes -3.31445
lfemur 1.18397 -5.11362 -25.5612
ltibia 16.4091
lfoot -20.2049 0.857474
ltoes -2.51734
322
root -12.327 17.4924 4.57847 278.843 -88.2312 -270.508
lowerback -1.70115 0.393265 -0.633574
upperback 1.77274 0.544045 -0.316493
thorax 2.76946 0.258704 0.0522563
lowerneck -12.627 2.19663 -3.45591
upperneck 30.1986 6.07773 -9.87102
head 12.3728 0.680158 -2.3779
rclavicle -1.36664e-015 -1.13307e-014
rhumerus -9.79347 -0.597886 -82.7575
rradius 84.842
rwrist -27.4258
rhand -8.38184 -32.8227
rfingers 7.12502
rthumb 17.5414 -62.0514
lclavicle -1.36664e-015 -1.13307e-014
lhumerus -23.2067 21.2757 80.6651
lradius 80.6825
lwrist 37.1633
lhand -0.555621 26.0982
lfingers 7.12502
lthumb 25.0581 54.4744
rfemur -39.1058 -2.92935 17.6615
rtibia 18.9106
rfoot -5.76277 -12.8237
rtoes -3.19918
lfemur 1.54049 -5.08057 -25.5386
ltibia 16.9899
lfoot -20.5237 0.675393
ltoes -3.1372
323
root -12.4897 17.4713 4.57157 290.365 -88.2559 -282.08
lowerback -1.57853 0.216586 -0.535374
upperback 1.83451 0.300456 -0.162935
thorax 2.76487 0.13728 0.144524
lowerneck -12.6801 2.16368 -3.43638
upperneck 30.1348 6.03749 -9.9122
head 12.3584 0.662352 -2.40017
rclavicle -1.49089e-015 2.78299e-015
rhumerus -9.25532 -2.46773 -82.082
rradius 84.447
rwrist -27.6088
rhand -8.86537 -32.8914
rfingers 7.12502
rthumb 17.076 -62.1609
lclavicle -1.49089e-015 2.78299e-015
lhumerus -23.8024 21.8919 80.5765
lradius 81.0226
lwrist 37.5942
lhand 1.61285 25.3437
lfingers 7.12502
lthumb 27.1343 53.4132
rfemur -38.9418 -2.67984 17.7607
rtibia 19.8424
rfoot -5.44036 -11.7669
rtoes -2.98539
lfemur 1.83113 -5.05921 -25.419
ltibia 17.6641
lfoot -20.7995 0.458578
ltoes -3.85084
324
root -12.6553 17.4525 4.56174 304.423 -88.2476 -296.165
lowerback -1.48692 0.0301986 -0.395608
upperback 1.87346 0.0423168 0.0266232
thorax 2.7549 0.00913136 0.250477
lowerneck -12.735 2.12976 -3.41249
upperneck 30.0991 6.00113 -9.9707
head 12.3572 0.642209 -2.43058
rclavicle -2.48481e-016 3.97569e-016
rhumerus -8.72172 -4.37467 -81.4234
rradius 83.9189
rwrist -27.8378
rhand -9.32851 -32.9936
rfingers 7.12502
rthumb 16.6302 -62.3011
lclavicle -2.48481e-016 3.97569e-016
lhumerus -24.3695 22.5566 80.4867
lradius 81.1806
lwrist 38.0317
lhand 3.3781 24.7276
lfingers 7.12502
lthumb 28.8218 52.5219
rfemur -38.7108 -2.25729 17.8188
rtibia 20.5082
rfoot -4.73008 -10.8786
rtoes -2.48934
lfemur 2.04526 -5.08749 -25.1884
ltibia 18.4316
lfoot -21.0128 0.232978
ltoes -4.67997
325
root -12.8227 17.4375 4.55 319.912 -88.1908 -311.663
lowerback -1.41114 -0.151079 -0.181996
upperback 1.89156 -0.211646 0.250289
thorax 2.73275 -0.11582 0.350666
lowerneck -12.7902 2.09531 -3.38427
upperneck 30.0951 5.96937 -10.047
head 12.3703 0.619787 -2.46941
rclavicle -4.96962e-017 1.98785e-016
rhumerus -8.19647 -6.31657 -80.7841
rradius 83.2581
rwrist -28.1299
rhand -9.76956 -33.1657
rfingers 7.12502
rthumb 16.2055 -62.5083
lclavicle -4.96962e-017 1.98785e-016
lhumerus -24.891 23.2672 80.396
lradius 81.133
lwrist 38.4237
lhand 4.55046 24.2597
lfingers 7.12502
lthumb 29.9411 51.8577
rfemur -38.443 -1.68309 17.8807
rtibia 20.8988
rfoot -3.50812 -10.2177
rtoes -1.67347
lfemur 2.18119 -5.18167 -24.8417
ltibia 19.3007
lfoot -21.147 0.0223295
ltoes -5.64071
326
root -12.9904 17.4274 4.53754 335.873 -88.0881 -327.62
lowerback -1.33509 -0.314356 0.13572
upperback 1.89362 -0.445153 0.508483
thorax 2.6935 -0.22906 0.429194
lowerneck -12.8461 2.05898 -3.36974
upperneck 30.1116 5.94042 -10.1278
head 12.3921 0.59478 -2.50819
rclavicle -7.95139e-016 -3.18055e-015
rhumerus -7.67353 -8.2747 -80.1622
rradius 82.4696
rwrist -28.5358
rhand -10.2429 -33.3849
rfingers 7.12502
rthumb 15.7498 -62.764
lclavicle -7.95139e-016 -3.18055e-015
lhumerus -25.3463 24.032 80.3131
lradius 80.8604
lwrist 38.723
lhand 4.86814 23.9714
lfingers 7.12502
lthumb 30.2442 51.5141
rfemur -38.1853 -1.00129 18.0106
rtibia 21.0844
rfoot -1.81316 -9.83349
rtoes -0.513619
lfemur 2.22501 -5.33481 -24.3715
ltibia 20.2916
lfoot -21.1868 -0.165335
ltoes -6.73245
327
root -13.1578 17.4234 4.52559 351.545 -87.9204 -343.292
lowerback -1.23529 -0.450404 0.566641
upperback 1.8835 -0.645533 0.790293
thorax 2.62696 -0.324286 0.470449
lowerneck -12.8974 2.01572 -3.3746
upperneck 30.1394 5.90223 -10.1935
head 12.4159 0.564772 -2.53966
rclavicle 3.18055e-015 1.59028e-015
rhumerus -7.16773 -10.2505 -79.5561
rradius 81.5631
rwrist -29.0854
rhand -10.7491 -33.6346
rfingers 7.12502
rthumb 15.2622 -63.0515
lclavicle 3.18055e-015 1.59028e-015
lhumerus -25.7303 24.8333 80.2387
lradius 80.3522
lwrist 38.9245
lhand 4.43389 23.8437
lfingers 7.12502
lthumb 29.8299 51.4617
rfemur -37.9523 -0.302477 18.2552
rtibia 21.1966
rfoot 0.130263 -9.72843
rtoes 1.02092
lfemur 2.17557 -5.52121 -23.7945
ltibia 21.431
lfoot -21.1141 -0.348911
ltoes -7.97371
328
root -13.3247 17.4259 4.51487 365.834 -87.677 -357.601
lowerback -1.10415 -0.554618 1.09547
upperback 1.87105 -0.805213 1.08244
thorax 2.53844 -0.398255 0.46983
lowerneck -12.9403 1.96168 -3.39768
upperneck 30.1622 5.84448 -10.2315
head 12.4333 0.528492 -2.55977
rclavicle -3.08116e-015 -1.43125e-014
rhumerus -6.69151 -12.2418 -78.9653
rradius 80.5549
rwrist -29.7935
rhand -11.2271 -33.8778
rfingers 7.12502
rthumb 14.8017 -63.3292
lclavicle -3.08116e-015 -1.43125e-014
lhumerus -26.018 25.6658 80.1769
lradius 79.588
lwrist 39.0532
lhand 3.35839 23.8912
lfingers 7.12502
lthumb 28.803 51.6887
rfemur -37.7408 0.319932 18.6482
rtibia 21.3778
rfoot 2.02675 -9.81089
rtoes 2.7948
lfemur 2.03518 -5.69596 -23.134
ltibia 22.7405
lfoot -20.912 -0.573737
ltoes -9.35322
329
root -13.4916 17.4346 4.50517 377.475 -87.3797 -369.285
lowerback -0.954084 -0.625413 1.66002
upperback 1.86474 -0.91958 1.36748
thorax 2.44417 -0.449791 0.444291
lowerneck -12.9746 1.8954 -3.43902
upperneck 30.1689 5.76185 -10.2316
head 12.4386 0.485904 -2.56472
rclavicle 3.57812e-015 8.34896e-015
rhumerus -6.23973 -14.2444 -78.3943
rradius 79.4489
rwrist -30.6555
rhand -11.6536 -34.0799
rfingers 7.12502
rthumb 14.3908 -63.561
lclavicle 3.57812e-015 8.34896e-015
lhumerus -26.1915 26.5283 80.1233
lradius 78.5526
lwrist 39.1454
lhand 2.43563 24.0399
lfingers 7.12502
lthumb 27.9211 51.9841
rfemur -37.5558 0.786919 19.1767
rtibia 21.7666
rfoot 3.56899 -9.88197
rtoes 4.73792
lfemur 1.78999 -5.80398 -22.4424
ltibia 24.2433
lfoot -20.5648 -0.890556
ltoes -10.8524
